<?xml version="1.0" encoding="UTF-8"?>
<svg version="1.1" xmlns="http://www.w3.org/2000/svg" width="306" height="322">
<path d="M0 0 C100.98 0 201.96 0 306 0 C306 106.26 306 212.52 306 322 C205.02 322 104.04 322 0 322 C0 215.74 0 109.48 0 0 Z " fill="#0D0F0D" transform="translate(0,0)"/>
<path d="M0 0 C1.25307953 -0.00095673 2.50615906 -0.00191345 3.79721069 -0.00289917 C6.45842939 -0.0035792 9.11955619 -0.00224563 11.78076172 0.00244141 C15.74579013 0.00910372 19.71075194 0.00254257 23.67578125 -0.00390625 C31.5215102 -0.00770113 39.36572188 0.04523642 47.2109375 0.1328125 C47.87667282 0.13930313 48.54240814 0.14579376 49.22831726 0.15248108 C53.83545641 0.19903745 58.44061088 0.28613933 63.046875 0.390625 C64.22488678 0.40423065 65.40289856 0.4178363 66.61660767 0.43185425 C76.04245029 0.69974276 84.67760944 2.68191122 91.73828125 9.30859375 C95.97162158 14.55254583 97.96489457 21.14094688 97.5859375 27.84375 C96.3417193 35.43866526 93.43231025 40.67462194 87.6015625 45.66015625 C79.79134367 50.47135314 72.87282643 50.54086448 63.8984375 50.3828125 C62.73892578 50.37765625 61.57941406 50.3725 60.38476562 50.3671875 C55.22237611 50.32075791 50.14003638 50.14066553 45.00244141 49.63061523 C39.27510034 49.09010668 33.59763877 48.97141095 27.84765625 48.96484375 C26.81204056 48.96151535 25.77642487 48.95818695 24.70942688 48.95475769 C22.54058268 48.94973449 20.37173087 48.94734792 18.20288086 48.94750977 C14.88968362 48.94530668 11.57681115 48.927057 8.26367188 48.90820312 C6.14583446 48.90527151 4.02799548 48.90328516 1.91015625 48.90234375 C0.92569016 48.89515823 -0.05877594 48.88797272 -1.07307434 48.88056946 C-8.9725857 48.90684283 -14.35091833 50.30420437 -20.7890625 55.1328125 C-23.63415929 59.40045768 -23.52330606 63.12589634 -22.7890625 68.1328125 C-18.33847271 75.88545278 -9.77663717 78.04885364 -1.54760742 80.3125 C-0.6785376 80.54195313 0.19053223 80.77140625 1.0859375 81.0078125 C2.48912231 81.38679688 2.48912231 81.38679688 3.9206543 81.7734375 C11.57279786 83.7984705 19.28430557 85.4781797 27.0234375 87.1328125 C46.01069929 91.23568141 65.39324608 96.94833356 80.2109375 110.1328125 C80.82324219 110.66390625 81.43554688 111.195 82.06640625 111.7421875 C92.80171523 121.6954541 98.20478674 134.73477631 99.47265625 149.09765625 C100.11153774 166.92024688 93.57638337 183.05196194 81.89453125 196.3828125 C65.66959946 213.00923459 40.15269551 221.86425413 17.26672363 222.46795654 C13.16376997 222.51638354 9.06378768 222.491842 4.9609375 222.4453125 C3.19140657 222.43459912 1.42187531 222.42393902 -0.34765625 222.41333008 C-14.88699616 222.28851498 -29.31590058 221.56553614 -43.7890625 220.1328125 C-44.89282227 220.03097656 -45.99658203 219.92914063 -47.13378906 219.82421875 C-50.39725309 219.51603969 -53.65539086 219.17533992 -56.9140625 218.8203125 C-57.86796875 218.72709717 -58.821875 218.63388184 -59.8046875 218.5378418 C-69.38708615 217.38184552 -77.28774424 213.88977315 -83.3828125 206.2421875 C-86.99695108 200.82097963 -88.47788943 195.67666837 -87.7890625 189.1328125 C-86.1576224 181.50583003 -82.94126785 176.36776538 -76.80859375 171.58984375 C-62.03120235 162.50975988 -33.22534791 168.68064823 -16.87280273 171.66503906 C-13.14848143 172.22998243 -9.47314159 172.3326408 -5.71484375 172.37109375 C-4.56812447 172.38320137 -4.56812447 172.38320137 -3.39823914 172.39555359 C-1.78545349 172.40932527 -0.17263955 172.42007804 1.44018555 172.42797852 C3.07015685 172.43947201 4.7000913 172.45988217 6.32983398 172.48950195 C17.31323716 172.68863384 27.59168381 172.63741495 36.7734375 165.6953125 C39.84696325 162.46417005 41.14219579 160.48721591 41.2734375 155.9921875 C41.05809162 151.92753393 40.59170449 149.65204021 38.1484375 146.3203125 C28.62957827 139.2318003 17.04054659 137.00352983 5.7109375 134.1953125 C4.13880493 133.80182617 4.13880493 133.80182617 2.53491211 133.40039062 C-2.96960852 132.03422558 -8.47832259 130.7485707 -14.03051758 129.59228516 C-37.03727208 124.77864291 -59.47726555 116.0462763 -72.84375 95.61328125 C-81.37913645 80.34213803 -82.67927199 64.0015348 -78.42724609 47.21289062 C-73.08023673 29.78499476 -59.97772268 17.9415497 -44.5234375 9.30859375 C-30.25559122 2.33281176 -15.74223386 -0.02688374 0 0 Z " fill="#FCFCFC" transform="translate(141.7890625,48.8671875)"/>
<path d="M0 0 C0.99 0.33 1.98 0.66 3 1 C2.0479279 2.00596297 1.08812654 3.00461563 0.125 4 C-0.40867188 4.556875 -0.94234375 5.11375 -1.4921875 5.6875 C-3 7 -3 7 -5 7 C-3.88820837 3.66462511 -2.52588702 2.36292656 0 0 Z " fill="#1F2020" transform="translate(223,244)"/>
</svg>
